<mxfile host="app.diagrams.net" agent="Mozilla/5.0 (Windows NT 10.0; Win64; x64) AppleWebKit/537.36 (KHTML, like Gecko) Chrome/133.0.0.0 Safari/537.36" version="26.0.15">
  <diagram name="Página-1" id="IcCqu0KN_R2il_qNYgx9">
    <mxGraphModel dx="1816" dy="532" grid="1" gridSize="10" guides="1" tooltips="1" connect="1" arrows="1" fold="1" page="1" pageScale="1" pageWidth="827" pageHeight="1169" background="#ffffff" math="0" shadow="0">
      <root>
        <mxCell id="0" />
        <mxCell id="1" parent="0" />
        <mxCell id="Vv7vcqU2_82h6NBbjcMo-2" value="Manter Usuário" style="shape=umlFrame;whiteSpace=wrap;html=1;pointerEvents=0;width=270;height=30;" vertex="1" parent="1">
          <mxGeometry x="20" y="210" width="200" height="270" as="geometry" />
        </mxCell>
        <mxCell id="Vv7vcqU2_82h6NBbjcMo-4" value="Administrador" style="shape=umlActor;verticalLabelPosition=bottom;verticalAlign=top;html=1;" vertex="1" parent="1">
          <mxGeometry x="-70" y="330" width="30" height="60" as="geometry" />
        </mxCell>
        <mxCell id="Vv7vcqU2_82h6NBbjcMo-6" value="Manter Usuário" style="ellipse;whiteSpace=wrap;html=1;" vertex="1" parent="1">
          <mxGeometry x="60" y="330" width="120" height="60" as="geometry" />
        </mxCell>
        <mxCell id="Vv7vcqU2_82h6NBbjcMo-9" value="" style="endArrow=none;startArrow=none;endFill=0;startFill=0;endSize=8;html=1;verticalAlign=bottom;labelBackgroundColor=none;strokeWidth=1;rounded=0;exitX=0.5;exitY=0.5;exitDx=0;exitDy=0;exitPerimeter=0;entryX=0;entryY=0.5;entryDx=0;entryDy=0;" edge="1" parent="1" source="Vv7vcqU2_82h6NBbjcMo-4" target="Vv7vcqU2_82h6NBbjcMo-6">
          <mxGeometry width="160" relative="1" as="geometry">
            <mxPoint x="-50.830000000000155" y="329.99999999999983" as="sourcePoint" />
            <mxPoint x="69" y="352.0599999999999" as="targetPoint" />
          </mxGeometry>
        </mxCell>
      </root>
    </mxGraphModel>
  </diagram>
</mxfile>
